<?xml version="1.0" standalone="no"?>
<!DOCTYPE svg PUBLIC "-//W3C//DTD SVG 20010904//EN"
 "http://www.w3.org/TR/2001/REC-SVG-20010904/DTD/svg10.dtd">
<svg version="1.0" xmlns="http://www.w3.org/2000/svg"
 width="782.000000pt" height="782.000000pt" viewBox="0 0 782.000000 782.000000"
 preserveAspectRatio="xMidYMid meet">
<metadata>
Created by potrace 1.11, written by Peter Selinger 2001-2013
</metadata>
<g transform="translate(0.000000,782.000000) scale(0.100000,-0.100000)"
fill="#000000" stroke="none">
<path d="M3381 7189 c-217 -24 -324 -76 -351 -170 -6 -20 -10 -257 -10 -591
l0 -558 -310 0 c-333 0 -352 -3 -397 -51 -71 -77 -96 -234 -90 -554 4 -253 16
-331 65 -420 15 -27 42 -60 61 -72 34 -23 37 -23 352 -23 l318 0 4 -1407 c3
-1244 6 -1422 20 -1531 79 -581 275 -932 640 -1142 227 -130 493 -195 852
-207 420 -14 844 67 1016 193 60 44 99 121 126 244 26 124 26 536 0 664 -24
118 -39 151 -76 170 -45 24 -80 20 -185 -19 -172 -65 -275 -86 -421 -86 -142
0 -213 13 -303 57 -147 72 -239 246 -271 519 -7 59 -11 507 -11 1318 l0 1227
563 0 c527 0 564 1 590 18 58 39 89 101 119 237 20 91 17 536 -5 637 -20 95
-57 169 -99 200 l-33 23 -567 3 -568 2 0 558 c0 350 -4 571 -10 594 -21 74
-121 131 -280 159 -83 14 -628 20 -739 8z"/>
</g>
</svg>
